<svg width="17" height="15" viewBox="0 0 17 15" fill="none" xmlns="http://www.w3.org/2000/svg">
<path d="M11.2537 9.79426C8.50869 9.80213 6.25735 7.60911 6.24456 4.91492C6.23177 2.21546 8.46815 0.0115244 11.2318 4.48547e-05C13.9895 -0.0114347 16.2429 2.18202 16.2497 4.88456C16.2565 7.58416 14.0156 9.78634 11.2537 9.79426ZM10.6666 5.36589C10.6672 5.36589 10.6678 5.36589 10.6684 5.36589C10.6684 5.5138 10.6595 5.66232 10.6702 5.80947C10.6925 6.1152 10.9563 6.34185 11.2677 6.3334C11.5714 6.3252 11.8113 6.09157 11.8256 5.7885C11.829 5.71763 11.8339 5.64567 11.8253 5.57575C11.8117 5.46499 11.8577 5.4121 11.9608 5.36338C12.6416 5.04186 12.9971 4.36727 12.8807 3.63808C12.7532 2.83972 11.9782 2.23083 11.1632 2.2887C10.2731 2.35194 9.58576 3.05043 9.58726 3.89025C9.58784 4.20769 9.83166 4.46223 10.1475 4.47509C10.4526 4.48752 10.708 4.26158 10.7438 3.94859C10.7499 3.8958 10.7557 3.84243 10.7687 3.79106C10.8229 3.57684 11.0207 3.42513 11.2441 3.42324C11.4606 3.42139 11.6556 3.56166 11.7213 3.76639C11.8225 4.08137 11.6117 4.35379 11.2327 4.39805C10.8698 4.44041 10.6705 4.65573 10.6667 5.01083C10.6655 5.12919 10.6666 5.24754 10.6666 5.36589ZM10.664 7.48079C10.6645 7.78998 10.9229 8.04405 11.2389 8.04604C11.5532 8.04799 11.8184 7.79454 11.8231 7.48767C11.8278 7.17473 11.5597 6.91312 11.2361 6.91493C10.9182 6.91673 10.6635 7.16871 10.664 7.48079Z" fill="#0075FF"/>
<path d="M1.87236 12.9398C1.37667 12.8706 0.954411 12.6848 0.611147 12.3428C0.215766 11.9487 0.00666863 11.474 0.00526399 10.9234C0.000371984 8.94657 -0.00359975 6.96976 0.00594209 4.993C0.0113669 3.8708 0.901858 2.99166 2.07192 2.96685C3.1533 2.94394 4.23559 2.96149 5.3175 2.96168C5.34036 2.96168 5.36322 2.96771 5.40493 2.97354C5.16653 3.68807 5.06433 4.4156 5.08525 5.18274C5.00795 5.18274 4.94368 5.18274 4.8794 5.18274C4.23874 5.18274 3.59803 5.18165 2.95737 5.18322C2.5836 5.18412 2.32606 5.41447 2.32432 5.7442C2.32258 6.07274 2.58151 6.31571 2.95079 6.31785C3.65189 6.32188 4.353 6.31908 5.05411 6.31913C5.11988 6.31913 5.18566 6.31913 5.24194 6.31913C5.36972 6.67926 5.49182 7.02351 5.62173 7.38967C5.55125 7.38967 5.488 7.38967 5.42479 7.38967C4.59072 7.38981 3.75661 7.38644 2.92255 7.39142C2.47665 7.39408 2.19582 7.80953 2.37677 8.19324C2.48716 8.42738 2.68681 8.52695 2.94711 8.52662C4.00484 8.5252 5.06254 8.5289 6.12023 8.52273C6.26616 8.52188 6.35974 8.55959 6.4538 8.67401C8.04007 10.603 10.6113 11.3783 13.0386 10.6661C13.0898 10.6511 13.1421 10.6396 13.2089 10.6226C13.2689 11.3151 13.0763 11.9067 12.5662 12.3835C12.1379 12.7837 11.6177 12.9501 11.0297 12.9478C9.77252 12.943 8.51528 12.953 7.25818 12.9443C6.23371 12.9372 5.32312 13.2331 4.52504 13.8648C4.13504 14.1735 3.73549 14.4706 3.34379 14.7772C3.04722 15.0094 2.72328 15.0697 2.37915 14.9117C2.03409 14.7533 1.87319 14.4689 1.87256 14.0974C1.87183 13.7136 1.87236 13.3299 1.87236 12.9398ZM4.75763 10.738C5.35572 10.738 5.9539 10.7432 6.55184 10.7338C6.67879 10.7318 6.81901 10.7007 6.92838 10.6402C7.14668 10.5194 7.23677 10.2551 7.17123 10.0231C7.09969 9.76997 6.87302 9.60399 6.5685 9.60319C5.36027 9.59996 4.15199 9.59901 2.94376 9.60361C2.57342 9.60504 2.31943 9.85256 2.32446 10.1827C2.32945 10.5118 2.58607 10.7366 2.96343 10.7376C3.56146 10.7391 4.15955 10.738 4.75763 10.738Z" fill="#0075FF"/>
</svg>
