<svg width="13" height="15" viewBox="0 0 13 15" fill="none" xmlns="http://www.w3.org/2000/svg">
<path d="M6.81804 0C7.11306 0.0646963 7.41577 0.10497 7.7018 0.198081C9.399 0.750485 10.5326 2.44641 10.3942 4.20581C10.247 6.07887 8.91981 7.56086 7.12495 7.85655C4.90892 8.2216 2.84984 6.61899 2.62156 4.35137C2.40474 2.19803 3.95498 0.254363 6.07104 0.0255967C6.10863 0.0215263 6.1453 0.00872794 6.1824 0C6.39428 0 6.60616 0 6.81804 0Z" fill="#0075FF"/>
<path d="M6.50071 14.9999C4.50783 14.9999 2.51495 15 0.522072 14.9999C0.157256 14.9999 -0.00463534 14.8325 0.000228352 14.4617C0.0367447 11.6817 2.06193 9.30271 4.77765 8.8568C5.02373 8.81641 5.27533 8.797 5.52473 8.79336C6.15037 8.78428 6.77628 8.78428 7.402 8.79046C9.91807 8.81547 12.1342 10.5537 12.795 13.0162C12.9232 13.4939 12.9925 13.98 13 14.475C13.0053 14.8262 12.8379 14.9997 12.4938 14.9998C10.4961 15.0001 8.49842 14.9999 6.50071 14.9999Z" fill="#0075FF"/>
</svg>
